<svg width="25" height="22" viewBox="0 0 25 22" fill="none" xmlns="http://www.w3.org/2000/svg">
<path d="M24.3143 11.1732C24.2763 13.0205 23.8642 14.6781 23.0779 16.1459C22.2637 17.6132 21.106 18.7654 19.6047 19.6026C18.1029 20.4677 16.3158 20.9069 14.2435 20.9203L14.3333 16.554C16.0966 16.5903 17.4222 16.1276 18.31 15.1658C19.1698 14.2035 19.6179 12.8407 19.6541 11.0774L19.6749 10.0698L14.8888 9.97129L15.0719 1.07083L24.5181 1.26518L24.3143 11.1732ZM0.940649 16.2785C2.70395 16.3148 4.0295 15.852 4.91731 14.8903C5.77713 13.9279 6.22518 12.5651 6.26146 10.8018L6.28219 9.79422L1.49609 9.69575L1.67921 0.795291L11.1255 0.989637L10.9216 10.8977C10.8836 12.745 10.4715 14.4025 9.68527 15.8704C8.87106 17.3377 7.71333 18.4899 6.21207 19.327C4.71023 20.1921 2.92315 20.6314 0.850818 20.6448L0.940649 16.2785Z" fill="#4EB543"/>
</svg>